<?xml version="1.0" encoding="iso-8859-1"?>
<!-- Generator: Adobe Illustrator 19.0.0, SVG Export Plug-In . SVG Version: 6.00 Build 0)  -->
<svg version="1.1" id="Capa_1" xmlns="http://www.w3.org/2000/svg" xmlns:xlink="http://www.w3.org/1999/xlink" x="0px" y="0px"
	 viewBox="0 0 438.422 438.422" style="enable-background:new 0 0 438.422 438.422; fill: white;" xml:space="preserve">
<g>
	<g>
		<path d="M437.765,167.876c-1.121-6.748-3.672-13.179-7.482-18.86c1.8-22.882-12.851-43.835-34.96-50
			c-3.24-0.887-6.566-1.424-9.92-1.6c-7.722-23.373-32.062-36.933-56-31.2c-9.624-22.398-31.622-36.949-56-37.04
			c-4.913,0.044-9.803,0.689-14.56,1.92C240.597,2.434,202.57-6.008,173.909,12.24c-13.827,8.803-23.57,22.761-27.065,38.776
			c-11.053,4.255-20.639,11.618-27.6,21.2c-12.817,0.39-24.945,5.892-33.68,15.28c-16.504-1.958-32.846,4.76-43.2,17.76
			c-26.326,3.115-45.142,26.982-42.027,53.308c1.77,14.958,10.459,28.218,23.467,35.812l3.04,1.44
			c1.512,26.466,24.193,46.696,50.66,45.184c5.24-0.299,10.395-1.456,15.26-3.424c2.32,2.012,4.84,3.781,7.52,5.28
			c4.086,2.252,8.479,3.896,13.04,4.88c7.44,7.6,52.4,58.08,52.24,169.92c-0.022,4.27,2.947,7.973,7.12,8.88
			c19.081,4.365,38.43,7.465,57.92,9.28c18.855-1.825,37.564-4.926,56-9.28c4.587-0.999,7.646-5.344,7.04-10
			c0-1.28-16-125.28,44.48-180.8c1.2-0.72,2.48-1.36,3.6-2.24c2.73,1.411,5.599,2.537,8.56,3.36c17.314,4.751,35.833-0.557,48-13.76
			C424.435,218.749,442.111,194.027,437.765,167.876z M120.204,113.175c2.619-1.523,4.301-4.256,4.48-7.28
			c1.136-18.602,14.012-34.407,32-39.28c3.365-1.107,5.773-4.078,6.16-7.6c2.676-23.842,24.173-41,48.014-38.324
			c15.199,1.706,28.381,11.279,34.706,25.204c2.004,4.4,7.115,6.444,11.6,4.64c22.118-8.946,47.3,1.733,56.246,23.851
			c1.561,3.86,2.556,7.925,2.954,12.069c0.279,2.573,1.648,4.903,3.76,6.4c19.59,13.773,24.305,40.82,10.531,60.409
			c-5.162,7.342-12.476,12.901-20.931,15.911c-2.39,0.863-4.307,2.693-5.28,5.04c-6.653,16.261-22.431,26.927-40,27.04
			c-4.974-0.058-9.9-0.979-14.56-2.72c-4.117-1.473-8.698,0.211-10.88,4c-7.622,13.703-22.081,22.188-37.76,22.16
			c-17.326,0.009-33.019-10.223-40-26.08c-1.39-3.208-4.506-5.326-8-5.44h-1.84c-23.728,4.817-46.869-10.513-51.686-34.241
			c-0.551-2.713-0.843-5.471-0.874-8.239C98.756,135.272,106.897,120.972,120.204,113.175z M108.764,227.015
			c-3.027-1.673-5.735-3.867-8-6.48c-2.929-3.107-7.633-3.741-11.28-1.52c-9.108,5.588-20.529,5.803-29.84,0.56
			c-10.274-5.775-16.172-17.069-15.04-28.8c0.42-4.271-2.221-8.249-6.32-9.52c-1.973-0.631-3.876-1.462-5.68-2.48
			c-14.404-7.825-19.737-25.844-11.912-40.248c5.178-9.532,15.144-15.48,25.992-15.512c3.019-0.057,5.81-1.618,7.44-4.16
			c6.849-10.647,19.711-15.759,32-12.72c3.578,0.904,7.346-0.458,9.52-3.44c3.277-4.488,7.736-7.978,12.88-10.08
			c-0.69,2.471-1.224,4.982-1.6,7.52c-16.762,11.397-26.774,30.371-26.72,50.64c0.125,34.241,27.985,61.898,62.226,61.773
			c1.794-0.007,3.587-0.091,5.374-0.253c2.28,3.797,4.962,7.337,8,10.56c-2.365,0.276-4.755,0.276-7.12,0
			c-2.501-0.41-5.059,0.259-7.04,1.84C132.16,232.043,119.185,232.958,108.764,227.015z M274.844,410.615
			c-14.651,3.366-29.511,5.744-44.48,7.12c-15.797-1.431-31.483-3.89-46.96-7.36c-1.36-89.6-30.08-140.64-47.04-163.2
			c4.859-1.348,9.476-3.454,13.68-6.24c5.629,0.414,11.286-0.154,16.72-1.68c12.917,15.571,21.229,34.44,24,54.48
			c0.527,4.552,4.377,7.99,8.96,8h1.04c4.964-0.538,8.551-4.997,8.014-9.961c-0.004-0.04-0.009-0.079-0.014-0.119
			c-2.263-17.772-8.438-34.821-18.08-49.92c3.483,0.652,7.017,1,10.56,1.04c19.581-0.037,37.984-9.357,49.6-25.12
			c-7.605,18.23-12.016,37.633-13.04,57.36c-0.133,4.991,3.805,9.145,8.795,9.278c0.028,0.001,0.056,0.001,0.085,0.002
			c4.991,0.134,9.146-3.803,9.28-8.793c0.004-0.162,0.004-0.324,0-0.487c1.44-19.373,6.316-38.335,14.4-56h1.84
			c6.265,10.78,16.479,18.698,28.48,22.08c2.622,0.686,5.299,1.141,8,1.36C268.604,299.015,272.284,383.655,274.844,410.615z
			 M418.844,183.895c-3.412,12.016-13.947,20.635-26.4,21.6c-2.521,0.201-4.842,1.449-6.4,3.44c-9.624,12.662-27.597,15.326-40.48,6
			c-3.586-2.543-8.481-2.138-11.6,0.96c-11.462,11.344-29.951,11.248-41.294-0.214c-0.64-0.646-1.249-1.322-1.826-2.026
			c12.758-6.02,23.085-16.206,29.28-28.88c31.118-13.42,45.464-49.526,32.043-80.643c-3.465-8.034-8.608-15.234-15.083-21.117
			c3.676-0.405,7.396-0.107,10.96,0.88c11.187,3.157,19.522,12.523,21.36,24c0.741,4.779,5.113,8.128,9.92,7.6
			c16.174-1.661,30.633,10.104,32.294,26.278c0.278,2.708,0.179,5.441-0.294,8.122c-0.425,2.564,0.275,5.188,1.92,7.2
			C419.34,164.595,421.427,174.582,418.844,183.895z"/>
	</g>
</g>
<g>
</g>
<g>
</g>
<g>
</g>
<g>
</g>
<g>
</g>
<g>
</g>
<g>
</g>
<g>
</g>
<g>
</g>
<g>
</g>
<g>
</g>
<g>
</g>
<g>
</g>
<g>
</g>
<g>
</g>
</svg>
