<svg enable-background="new 0 0 140 140" height="512" viewBox="0 0 140 140" width="512" xmlns="http://www.w3.org/2000/svg"><circle cx="70" cy="70" fill="#344d5b" r="64"/><path d="m133.2806549 79.6042709-36.9847336-36.9848632c-.0935669-.0947266-.1878662-.1887207-.2824707-.2824707l-.1412964-.1413574-.0048218.0012207c-2.6246948-2.5705566-5.6547852-4.7260742-8.9867554-6.3654785l-11.9190063-11.9189435-.0036011.0134277c-.8488159-.9138184-2.0512695-1.4938965-3.3982544-1.4938965-2.5700073 0-4.6500244 2.0800781-4.6500244 4.6501465 0 1.3371582.5722656 2.532959 1.4786377 3.3796387l-.0125732.0021973 1.3139648 1.3139648v.5441875c-17.7400551.9399414-31.950016 15.1799316-32.8300209 32.9399414l3.8701172 3.8701172-.0789185.0498047h-8.1011963c-.6500244 0-1.1799927.5800781-1.0700073 1.2202148.2370605 1.328125.8561401 2.5219727 1.7333984 3.4741211l-.0038452.0024414.0717163.0717773c.0830688.0876465.168335.1726074.2557983.2558594l10.475647 10.4755859h-15.3727416v17.7099609l30.7090454 30.708992c3.4657593.5810547 7.0205116.8991699 10.65131.8991699 32.081665.0000002 58.6464767-23.6062086 63.280632-54.3957594z" opacity=".1"/><g fill="#ededed"><path d="m71.5600281 32.2659302c-18.601841 0-33.7891769 14.6167946-34.7046509 32.9913788h69.4092941c-.9154739-18.3745842-16.1028061-32.9913788-34.7046432-32.9913788z"/><path d="m97.4367676 56.8403969c-2.5902328-8.9290047-9.7772141-15.9953918-18.7568893-18.4437485l.5452042-2.0024643c9.6728363 2.6368484 17.4151535 10.2494545 20.20401 19.868576z"/><path d="m76.213028 27.0805626c0-2.5698376-2.0830307-4.6530552-4.6528702-4.6530552-2.5698318 0-4.6531143 2.0832176-4.6531143 4.6530552 0 1.9038486 1.1464005 3.5354118 2.7839127 4.2559338v3.8106098h3.7380295v-3.8104839c1.6376418-.7203961 2.7840423-2.3521481 2.7840423-4.2560597z"/></g><path d="m110.568306 69.177948h-78.0164833c-.6516724 0-1.1811714.5791473-1.0673542 1.2208176.5769367 3.2529297 3.4185543 5.7233276 6.8371716 5.7233276h66.4767914c3.4185486 0 6.260231-2.4703979 6.8372345-5.7233276.1137542-.6416703-.4157487-1.2208176-1.06736-1.2208176z" fill="#dbd8dd"/><path d="m102.1799469 82.0009079c-.5116348-.1048813-1.043663-.0331879-1.5091934.2034378l-17.8577499 9.0777206h-23.2210122l5.5730247-4.1798019h10.3720779c1.4534607 0 2.6317825-1.1782608 2.6317825-2.6317139 0-1.4534607-1.1783218-2.6317215-2.6317825-2.6317215h-17.6515921c-.911293 0-1.8074493.2328949-2.603405.6765671l-8.2293816 4.5868683-.9288368 13.0037308h34.3114471c1.749115 0 3.4556732-.5383682 4.8880997-1.5420074l17.7168961-12.4130478c1.6580352-1.161728 1.1228408-3.7431489-.8603745-4.1500321z" fill="#feda6f"/><path d="m28.635576 84.677574h18.97271v17.71619h-18.97271z" fill="#4abba4"/></svg>