<?xml version="1.0" encoding="UTF-8"?>
<svg xmlns="http://www.w3.org/2000/svg" xmlns:xlink="http://www.w3.org/1999/xlink" width="25pt" height="25pt" viewBox="0 0 25 25" version="1.1">
<g id="surface1">
<path style=" stroke:none;fill-rule:nonzero;fill:rgb(84.313725%,26.666667%,24.313725%);fill-opacity:1;" d="M 23.015625 3.542969 C 21.722656 2.140625 19.945312 1.367188 18.015625 1.367188 C 16.574219 1.367188 15.25 1.824219 14.089844 2.722656 C 13.5 3.175781 12.96875 3.734375 12.5 4.382812 C 12.03125 3.734375 11.5 3.175781 10.910156 2.722656 C 9.75 1.824219 8.425781 1.367188 6.984375 1.367188 C 5.054688 1.367188 3.277344 2.140625 1.984375 3.542969 C 0.703125 4.929688 0 6.828125 0 8.878906 C 0 10.996094 0.789062 12.929688 2.480469 14.972656 C 3.992188 16.796875 6.167969 18.652344 8.6875 20.796875 C 9.546875 21.53125 10.519531 22.359375 11.535156 23.246094 C 11.800781 23.480469 12.144531 23.609375 12.5 23.609375 C 12.855469 23.609375 13.199219 23.480469 13.464844 23.246094 C 14.476562 22.359375 15.453125 21.53125 16.3125 20.796875 C 18.832031 18.652344 21.007812 16.796875 22.519531 14.972656 C 24.210938 12.929688 25 10.996094 25 8.878906 C 25 6.828125 24.296875 4.929688 23.015625 3.542969 Z M 23.015625 3.542969 "/>
</g>
</svg>
