<?xml version="1.0" encoding="UTF-8"?>
<svg xmlns="http://www.w3.org/2000/svg" xmlns:xlink="http://www.w3.org/1999/xlink" width="25pt" height="25pt" viewBox="0 0 25 25" version="1.1">
<g id="surface1">
<path style=" stroke:none;fill-rule:nonzero;fill:rgb(84.313725%,26.666667%,24.313725%);fill-opacity:1;" d="M 12.5 23.609375 C 12.144531 23.609375 11.800781 23.480469 11.535156 23.246094 C 10.523438 22.363281 9.550781 21.53125 8.691406 20.800781 L 8.6875 20.796875 C 6.167969 18.652344 3.992188 16.796875 2.480469 14.972656 C 0.789062 12.929688 0 10.996094 0 8.878906 C 0 6.828125 0.703125 4.929688 1.984375 3.542969 C 3.277344 2.140625 5.054688 1.367188 6.984375 1.367188 C 8.425781 1.367188 9.75 1.824219 10.910156 2.722656 C 11.5 3.175781 12.03125 3.734375 12.5 4.382812 C 12.96875 3.734375 13.5 3.175781 14.089844 2.722656 C 15.25 1.824219 16.574219 1.367188 18.015625 1.367188 C 19.945312 1.367188 21.722656 2.140625 23.015625 3.542969 C 24.296875 4.929688 25 6.828125 25 8.878906 C 25 10.996094 24.210938 12.929688 22.519531 14.972656 C 21.007812 16.796875 18.832031 18.652344 16.3125 20.796875 C 15.453125 21.53125 14.476562 22.359375 13.464844 23.246094 C 13.199219 23.480469 12.855469 23.609375 12.5 23.609375 Z M 6.984375 2.832031 C 5.46875 2.832031 4.074219 3.4375 3.058594 4.535156 C 2.03125 5.652344 1.464844 7.195312 1.464844 8.878906 C 1.464844 10.660156 2.125 12.25 3.605469 14.035156 C 5.039062 15.765625 7.167969 17.582031 9.636719 19.683594 L 9.640625 19.6875 C 10.503906 20.421875 11.480469 21.253906 12.496094 22.144531 C 13.519531 21.253906 14.5 20.417969 15.363281 19.683594 C 17.832031 17.582031 19.960938 15.765625 21.394531 14.035156 C 22.875 12.25 23.535156 10.660156 23.535156 8.878906 C 23.535156 7.195312 22.96875 5.652344 21.941406 4.535156 C 20.925781 3.4375 19.53125 2.832031 18.015625 2.832031 C 16.90625 2.832031 15.882812 3.183594 14.984375 3.882812 C 14.179688 4.503906 13.621094 5.289062 13.292969 5.835938 C 13.125 6.121094 12.828125 6.289062 12.5 6.289062 C 12.171875 6.289062 11.875 6.121094 11.707031 5.835938 C 11.378906 5.289062 10.820312 4.503906 10.015625 3.882812 C 9.113281 3.183594 8.09375 2.832031 6.984375 2.832031 Z M 6.984375 2.832031 "/>
</g>
</svg>
