<svg enable-background="new 0 0 140 140" height="512" viewBox="0 0 140 140" width="512" xmlns="http://www.w3.org/2000/svg"><circle cx="70" cy="70" fill="#344d5b" r="64"/><path d="m133.9649811 71.3860321-35.6268234-35.6269493c-.0360107-.0361328-.0722656-.0727539-.1088257-.1083984l-.0519409-.0522461-.0027466.0024414c-1.802063-1.7480469-4.2539062-2.8291016-6.9549561-2.8291016h-42.4400062c-5.5100098 0-10 4.4804688-10 10v18.7104492h-3.7600098c-1.0299683 0-1.8699951.8398438-1.8699951 1.8696289v3.9799767c0 .449707.1634521.8564453.4249268 1.1796875l-.0016479.0004883.0122681.012207c.0772705.09375.1625366.1791992.2562866.2563477l5.8900757 5.8901367 3.4381104 26.3613281c.0932007.7148438.3911133 1.355957.824707 1.878418l-.0020752.0009766.0680542.0678711c.1235962.1411133.253418.2758789.3966675.3964844l30.4202919 30.4204102c32.6090086-2.4599611 58.3824995-29.3408205 59.0876387-62.4101564z" opacity=".1"/><path d="m95.1983414 44.8321304-5.8038101-2.1290855c-.3723373-.1365891-.7801666.0847816-.8686066.4715157l-.8233261 3.5983276c-.0739212.3229446.1038513.6507988.4150238.7649498l4.9282379 1.8078918c.3111725.114151.658783-.0209732.8112335-.3151054l1.6988907-3.2771339c.1826248-.3521843.0146942-.784771-.3576431-.9213601z" fill="#d6683d"/><path d="m89.4282532 62.7316628 5.3223801-14.5086136-7.2801514-2.6706734-5.3223801 14.5086136c-3.7841034-.9648857-7.7596207 1.0721054-9.133667 4.8177185l-9.8600769 26.8781891c-.5176125 1.4109879.2066803 2.9745636 1.6177444 3.4922028l15.1553268 5.5596313c1.4110718.5176392 2.9746475-.2066498 3.4922562-1.6176376l9.8600769-26.8781891c1.374054-3.7456131-.341133-7.8702012-3.851509-9.5812416z" fill="#dbd8dd"/><path d="m89.4282532 62.7316895 3.1369629-8.5512695h-8.2598877l-2.1572266 5.8803711c-3.7840576-.9648438-7.7596436 1.0722656-9.133667 4.8178711l-9.8601036 26.878418c-.5175781 1.4106445.2067871 2.9746094 1.617794 3.4921875l15.1552734 5.5595703c1.4110107.5175781 2.9747314-.2070312 3.4923096-1.6176758l9.8601074-26.878418c1.3740235-3.7456055-.3411864-7.8701172-3.8515624-9.5810547z" fill="#feda6f"/><path d="m94.8337631 48.023304-7.2976074-2.6770744c-.6022568-.2209358-1.2696457.0882835-1.4905777.6905441-.2209396.6022606.0881653 1.2696991.6904297 1.4906349l7.2976074 2.6770782c.6022644.2209358 1.2697296-.088253 1.4906693-.6905174.220932-.6022606-.0882569-1.2697296-.6905213-1.4906654z" fill="#ededed"/><path d="m69.5983963 91.2374344-1.3624954-2.0090714-3.8836441-24.1347198c-.1016312-.6316147-.376255-1.222805-.7934456-1.7081223l-3.568924-4.1506233-4.3766632-14.4492607.0899582-.0173988c.1760979-.0340538.291275-.2043533.2572174-.3804741-.0340614-.1761169-.204464-.2913666-.3805618-.2573128l-.1559334.030159-.5072899-1.6747894-2.5950584.8075638-2.709034.2182007.153717 1.7431679-.1559143.0301514c-.1761208.0340614-.2912674.2045326-.257206.3806534.0340576.1761169.2044296.2911949.3805466.2571335l.0899353-.0173912 1.3261299 15.0392075-1.7640762 5.1819801c-.2061653.6058655-.2405701 1.2568207-.0993843 1.8807907l5.3947411 23.8424835-.5151711 2.3722c-.0868225.3999023-.0915565.8132477-.0138359 1.2151184l.6001472 3.1032867c.3168716 1.6384964 1.9020195 2.7099228 3.5405159 2.3930511l4.9893761-.9648972 4.9893951-.9649124c1.6384735-.316864 2.7098541-1.9020462 2.3929825-3.5405426l-.6001434-3.1032867c-.0777206-.4018708-.236206-.7836457-.4658813-1.122345z" fill="#ededed"/><path d="m67.0273438 89.7077484-3.9282417-24.412468c-.0647964-.4003448-.2388-.7745209-.5028191-1.0820465l-3.7440605-4.3535423-2.0074158-6.6278305-5.0151253.969883.6084366 6.8983803-1.8509293 5.4355659c-.1303253.3837891-.1522751.7958603-.0625267 1.1913757l5.4563065 24.1169586-.5750504 2.6478119c-.0503464.2325821-.0530739.4698563-.0077629.7041473l.6002083 3.1035919c.1834755.9487305 1.1043434 1.5711441 2.0530701 1.3876648l9.9789772-1.9298477c.9487305-.1834793 1.5711441-1.1043472 1.3876648-2.0530701l-.6002045-3.1035995c-.045311-.2342911-.1363068-.4534378-.2697372-.6504822z" fill="#963e25"/><g fill="#ededed"><path d="m54.3157997 41.1716461-4.6358871.8965416c-.4532242.0876503-.7495956.5261078-.6619453.979332l.2771111 1.4329109c.0414581.2143745.2489204.3546371.4633408.3131676l5.500824-1.0638123c.2144432-.0414696.3546295-.2489624.3131714-.4633408l-.2770805-1.4327354c-.0876811-.4533958-.5262034-.749733-.9795344-.6620636z"/><path d="m66.4903107 91.8385162-.9843292-2.0822067-4.187973-24.0758667c-.1096001-.6300812-.3219872-1.2333069-.613636-1.742897l-2.4948692-4.3583374-3.7622948-14.5680733.0537224-.0103912c.1051636-.0203362.1628342-.1795158.1287766-.3556328-.0340614-.1761208-.1469536-.3024902-.252121-.2821541l-.0931244.0180092-.4360809-1.6885605-1.526825.6009789-1.6408005.0116119.2249222 1.7293968-.0931129.0180092c-.1051788.02034-.1628151.1796913-.1287537.3558083.0340576.1761208.1469193.3023186.2520981.2819786l.0537071-.0103874 1.940506 14.9203911-.6900215 4.9742699c-.0806236.5815887-.0527878 1.2205048.0804291 1.8460159l5.0904121 23.9013443-.1370201 2.2990646c-.0230827.3875732.0050583.7945633.0827789 1.1964264l.6001472 3.1032867c.3168716 1.6384964 1.3670006 2.8134003 2.3455162 2.6241608l2.9796791-.5762405 2.9796906-.5762482c.9785004-.1892319 1.5148621-1.6709442 1.1979904-3.3094406l-.6001434-3.1032867c-.0777207-.4018708-.2033387-.7900087-.3692704-1.1410295z"/><path d="m69.5983963 91.2374344-1.3624954-2.0090714-3.8836441-24.1347198c-.1016312-.6316147-.376255-1.222805-.7934456-1.7081223l-3.568924-4.1506233-4.3766632-14.4492607.0899582-.0173988c.1760979-.0340538.291275-.2043533.2572174-.3804741-.0340614-.1761169-.204464-.2913666-.3805618-.2573128l-.1559334.030159-.5072899-1.6747894-2.5950584.8075638-2.709034.2182007.153717 1.7431679-.1559143.0301514c-.1761208.0340614-.2912674.2045326-.257206.3806534.0340576.1761169.2044296.2911949.3805466.2571335l.0899353-.0173912 1.3261299 15.0392075-1.7640762 5.1819801c-.2061653.6058655-.2405701 1.2568207-.0993843 1.8807907l5.3947411 23.8424835-.5151711 2.3722c-.0868225.3999023-.0915565.8132477-.0138359 1.2151184l.6001472 3.1032867c.3168716 1.6384964 1.9020195 2.7099228 3.5405159 2.3930511l4.9893761-.9648972 4.9893951-.9649124c1.6384735-.316864 2.7098541-1.9020462 2.3929825-3.5405426l-.6001434-3.1032867c-.0777206-.4018708-.236206-.7836457-.4658813-1.122345z"/></g><path d="m67.0273438 89.7077484-3.9282417-24.412468c-.0647964-.4003448-.2388-.7745209-.5028191-1.0820465l-3.7440605-4.3535423-2.0074158-6.6278305-5.0151253.969883.6084366 6.8983803-1.8509293 5.4355659c-.1303253.3837891-.1522751.7958603-.0625267 1.1913757l5.4563065 24.1169586-.5750504 2.6478119c-.0503464.2325821-.0530739.4698563-.0077629.7041473l.6002083 3.1035919c.1834755.9487305 1.1043434 1.5711441 2.0530701 1.3876648l9.9789772-1.9298477c.9487305-.1834793 1.5711441-1.1043472 1.3876648-2.0530701l-.6002045-3.1035995c-.045311-.2342911-.1363068-.4534378-.2697372-.6504822z" fill="#963e25"/><g fill="#ededed" opacity=".15"><path d="m50.6795654 43.3033524.5489731-.0027885.2498016 1.6260796-.0623016.0120468c-.0685387.0132561-.0981293.1611786-.0631752.3419189.0337448.1744995.1175613.3069649.1861.2937088l.0373878-.0072289 2.2468376 14.8606644-.1442528 4.8698769c-.0197792.5663147.0384331 1.2015228.1663589 1.8295517l4.9376602 23.9274902.0565681 2.2646103c.0087433.3796234.0547371.7845459.131855 1.1833038l.6001472 3.1032867c.316967 1.6389771 1.0971069 2.8649902 1.7389374 2.74086l-1.0095062.1952362c-.9783554.1892014-2.0264511-.9849854-2.3434143-2.6239624l-.6001511-3.1032944c-.0771141-.3987503-.1043968-.8072968-.0819931-1.1929398l.1366119-2.3019714-5.0934486-23.8973618c-.1341667-.6268234-.16119-1.2680588-.0791092-1.8464279l.6926308-4.9759293-1.9414978-14.9197121-.0560989.010849c-.1059265.0204849-.2146568-.1071587-.2484016-.281662-.0349541-.1807404.0195503-.3334808.125473-.3539658l.0934906-.0180817z"/><path d="m66.8604889 92.9768982.6001511 3.1032944c.3169632 1.6389694-.2239761 3.1204681-1.2023315 3.3096695l-1.0095062.1952362c.6480637-.1253357.9148483-1.5538101.5978851-3.1927872l-.6001511-3.1032944c-.0771103-.3987503-.1854095-.791626-.3188248-1.1471329l-.7980881-2.1212082-4.3394547-24.0431824c-.1154518-.6304398-.2920265-1.2427521-.5215263-1.7608643l-1.9557686-4.4637527-3.4495583-14.628067.0311508-.0060234c.068573-.0132637.09692-.1674194.0631752-.3419189-.0349541-.1807404-.117527-.3069725-.1861-.2937126l-.0623015.0120506-.3744392-1.6019745.5103951-.2020836.437336 1.6931877.0934868-.0180779c.1059265-.0204849.2196846.0997162.2546387.2804527.0337486.1745033-.0257874.3346901-.1317139.355175l-.0498619.0096436 3.7611351 14.5678101 2.4916725 4.3601112c.2917976.5060616.5057983 1.1111336.6150131 1.7427864l4.1899033 24.0720978.9850235 2.0850601c.1645735.3494798.2915419.7387544.3686598 1.1375047z"/></g><path d="m52.3202438 43.2963486-1.0917053.0042152-.013073-.1008491z" fill="#ededed"/><path d="m54.3157997 41.1716461-4.6358871.8965416c-.4532242.0876503-.7495956.5261078-.6619453.979332l.2771111 1.4329109c.0414581.2143745.2489204.3546371.4633408.3131676l5.500824-1.0638123c.2144432-.0414696.3546295-.2489624.3131714-.4633408l-.2770805-1.4327354c-.0876811-.4533958-.5262034-.749733-.9795344-.6620636z" fill="#dbd8dd"/><path d="m101.2210388 67.2199402h-62.4420814v-24.4510155c0-5.5145493 4.4870987-10.0016479 10.0016518-10.0016479h42.4387817c5.5145493 0 10.0016479 4.4870987 10.0016479 10.0016479zm-58.6912346-3.7508431h54.9403878v-20.7001724c0-3.4468231-2.803978-6.2508011-6.2508011-6.2508011h-42.4387818c-3.4468269 0-6.2508049 2.803978-6.2508049 6.2508011z" fill="#ededed"/><path d="m38.7901611 67.4699402 4.3800697 33.561203c.2407227 1.8451996 1.8128128 3.2252121 3.6734695 3.2252121h46.3162347c1.8606567 0 3.4327393-1.3800125 3.6735764-3.2252121l4.3800735-33.561203zm16.2317314 30.0910263-1.5378609-21.370491h6.2544632l.9564857 21.370491zm17.8165246 0h-5.6730881l-.2907486-21.370491h6.2544708zm12.1434326 0h-5.6731949l.9564819-21.370491h6.245079z" fill="#41a38e"/><path d="m104.9757233 69.2082367h-69.9514428c-1.0356979 0-1.8752937-.8395996-1.8752937-1.8752975v-3.9772797c0-1.0356941.8395958-1.8752899 1.8752937-1.8752899h69.9514465c1.0356903 0 1.8752899.8395958 1.8752899 1.8752899v3.9772797c-.0000037 1.0356979-.8396033 1.8752975-1.8752936 1.8752975z" fill="#4abba4"/></svg>