<svg enable-background="new 0 0 140 140" height="512" viewBox="0 0 140 140" width="512" xmlns="http://www.w3.org/2000/svg"><circle cx="70" cy="70" fill="#4abba4" r="64"/><path d="m133.9361725 72.5251923-39.8611374-39.8613243-.0082397.0078125c-2.8556519-3.0219727-6.5421143-4.6489258-10.6108398-4.3642578l-2.0679932-2.0683594c-.0675049-.0727539-.1412354-.1455078-.2190552-.21875l-.0344238-.034668-.0005493.0009766c-1.5618286-1.4404297-5.210144-2.9121094-13.7042236-2.5244141-15.7700235.7197266-22.1900064 8.8896484-24.0200235 13.4799805-1.8300171 4.6000977-4.4000244 14.4697266-2.2000122 22.2998047.5599976 2 1.0900269 3.6801758 1.5599976 5.0898399-.9599609 1.75-1.1900024 4.7001953-.4400024 7.8500977.6828003 2.8481445 2.0090942 5.1855469 3.4795532 6.4365234l-.0059204.0014648 3.6960449 3.6962891c1.4745483 2.8959961 3.2400513 5.4873047 5.2518921 7.6679688h-.0019531l.0161133.0161133c.4945068.5351562 1.0053101 1.0419922 1.5275269 1.5273438l9.8139687 9.8144531c-.8894043.5532227-1.6685181 1.2685547-2.2772255 2.1201172-2.4499512-1.0800781-5.1199951-1.9799805-6.7299805-2.9404297-12.3499756-7.3198242-7.5700073 3.3901367-7.5700073 7.5703125 0 2.6582031-2.0040894 6.3847656-.2415161 7.8632812l17.9752846 17.9755859c.9083862.0380859 1.8187866.0688477 2.7365723.0688477 34.4993894-.0000001 62.6082075-27.3007813 63.9361494-61.4746094z" opacity=".1"/><g fill="#ededed"><path d="m70.7596512 25.5657806c-14.372551 0-26.0238495 16.1303177-26.0238495 36.0276833s11.6512985 36.0270119 26.0238495 36.0270119 26.0238418-16.1296463 26.0238418-36.0270119-11.6512985-36.0276833-26.0238418-36.0276833z"/><ellipse cx="94.911" cy="71.155" rx="8.634" ry="4.398" transform="matrix(.233 -.973 .973 .233 3.625 146.905)"/><ellipse cx="46.608" cy="71.155" rx="4.398" ry="8.634" transform="matrix(.973 -.233 .233 .973 -15.277 12.798)"/></g><g fill="#344d5b"><path d="m98.7840805 41.1983871c-2.5670242-8.6802864-8.9844666-13.9564724-16.5020981-12.7650146 0 0 .916748-5.6908169-14.8518677-4.9726696-15.7686768.7176647-22.1861801 8.8871212-24.0197258 13.4826794-1.8336067 4.595562-4.4005699 14.467308-2.2003136 22.2966881 1.6645927 5.9231453 3.0143013 9.1184883 3.5728722 10.3234138.1629448.3516159.5113754.569519.8988266.569519.5571289 0 1.0039864-.453598.9927444-1.0106049-.0503883-2.4868164.0517082-9.1045341 2.2365685-14.6481628 0 0 28.236908 3.4040985 33.3708954-9.5311928 0 0 8.6177597 3.9144516 11.0013962 11.2334824 1.8060684 5.5455513 1.6120453 10.7000465 1.4120026 12.8722801-.0537491.5834656.4024887 1.084198.9885941 1.084198h.1058807c.4658585 0 .8678055-.3165054.968277-.7715378.8351516-3.7821731 4.2944412-20.4919471 2.0259475-28.1630783z"/><path d="m84.2681351 100.5252914c-3.595871 2.1332779-12.395813 3.9578552-12.395813 8.139267 0 4.1809235 8.3634491 5.8963394 12.395813 7.0014496 12.5394287 3.436554 7.5704727-3.3891907 7.5704727-7.5701218 0-4.1814117 4.7756576-14.89505-7.5704727-7.5705948z"/><path d="m57.0967255 100.5252914c3.595871 2.1332779 12.395813 3.9578552 12.395813 8.139267 0 4.1809235-8.3634529 5.8963394-12.395813 7.0014496-12.5394287 3.436554-7.5704803-3.3891907-7.5704803-7.5701218-.0000001-4.1814117-4.7756501-14.89505 7.5704803-7.5705948z"/></g><path d="m76.5230331 106.7258224s7.0773773-.5004196 11.4381866-2.7880554l-5.6200943 4.4683533s3.4039459 1.6796646 6.1205139 3.6098633l-12.8679581-2.2876358z" fill="#293b44"/><path d="m64.8890457 106.7258224s-7.0773773-.5004196-11.4381828-2.7880554l5.6200867 4.4683533s-3.4039383 1.6796646-6.1205101 3.6098633l12.8679581-2.2876358z" fill="#293b44"/><path d="m70.2332535 100.1524429c-4.3506699 0-7.8776054 3.5272369-7.8776054 7.8779678 0 4.3502426 3.5269356 7.8774796 7.8776054 7.8774796 4.3507233 0 7.8776627-3.5272369 7.8776627-7.8774796-.0000001-4.3507308-3.5269395-7.8779678-7.8776627-7.8779678z" fill="#344d5b"/></svg>